<?xml version="1.0" standalone="no"?><!DOCTYPE svg PUBLIC "-//W3C//DTD SVG 1.1//EN" "http://www.w3.org/Graphics/SVG/1.1/DTD/svg11.dtd"><svg t="1626335628224" class="icon" viewBox="0 0 1024 1024" version="1.1" xmlns="http://www.w3.org/2000/svg" p-id="6099" xmlns:xlink="http://www.w3.org/1999/xlink" width="32" height="32"><defs><style type="text/css"></style></defs><path d="M834.303 352.752L624.215 142.571c-5.588-5.208-12.83-8.648-20.833-8.648H259.056c-21.565 0-40.904 9.022-54.85 23.243-14.498 14.036-23.056 33.466-23.056 54.664v600.251c0 21.287 8.558 41.085 23.056 55.305 13.945 14.046 33.472 22.691 54.85 22.691h505.716c20.813 0 40.343-8.646 54.475-22.501l0.735-0.19v-0.176c14.132-14.506 22.868-33.842 22.868-55.129v-438.32c0-7.62-2.967-14.87-8.547-21.009z m-213.446-130.98l134.247 134.241H652.102c-8.557 0-16.363-3.538-21.758-9.301l-0.75-0.74c-5.379-5.396-8.736-13.204-8.736-21.29v-102.91z m163.8 590.309c0 5.39-2.04 10.318-5.757 14.037-3.728 3.902-8.555 5.761-14.129 5.761H259.056c-5.395 0-10.229-1.858-13.944-5.761-3.53-3.719-5.763-8.647-5.763-14.037V211.83c0-5.12 2.232-10.139 5.763-13.766 3.716-3.716 8.55-6.037 13.944-6.037h326.659v132.655c0 17.573 7.254 33.375 18.599 45.549l1.302 1.307c11.72 12.175 28.447 19.33 46.486 19.33h132.556v421.213z" fill="" p-id="6100"></path><path d="M456.736 551.179H306.729c-9.397 0-17.046 7.87-17.046 17.164v150.111c0 9.289 7.648 16.723 17.046 16.723h150.008c9.396 0 17.156-7.434 17.156-16.723V568.343c0-9.294-7.76-17.164-17.157-17.164z m-17.064 150.108H323.896V585.399h115.776v115.888zM456.736 290.763H306.729c-9.397 0-17.046 7.648-17.046 17.269V457.816c0 9.512 7.648 16.945 17.046 16.945h150.008c9.396 0 17.156-7.434 17.156-16.945V308.031c0-9.62-7.76-17.268-17.157-17.268z m-17.064 149.886H323.896V324.762h115.776v115.887zM506.365 434.089c0 9.401 7.546 17.274 17.057 17.274h193.727c9.398 0 17.167-7.873 17.167-17.274 0-9.402-7.769-17.055-17.167-17.055H523.422a17.01 17.01 0 0 0-17.057 17.055zM717.148 575.016H523.422c-9.511 0-17.057 7.541-17.057 16.943 0 9.296 7.546 17.272 17.057 17.272h193.727c9.398 0 17.167-7.977 17.167-17.272-0.001-9.402-7.769-16.943-17.168-16.943zM717.148 677.453H523.422a17.01 17.01 0 0 0-17.057 17.054c0 9.623 7.546 17.165 17.057 17.165h193.727c9.398 0 17.167-7.542 17.167-17.165-0.001-9.4-7.769-17.054-17.168-17.054z" fill="" p-id="6101"></path></svg>