<?xml version="1.0" standalone="no"?><!DOCTYPE svg PUBLIC "-//W3C//DTD SVG 1.1//EN" "http://www.w3.org/Graphics/SVG/1.1/DTD/svg11.dtd"><svg t="1626335541593" class="icon" viewBox="0 0 1070 1024" version="1.1" xmlns="http://www.w3.org/2000/svg" p-id="3639" xmlns:xlink="http://www.w3.org/1999/xlink" width="33.4375" height="32"><defs><style type="text/css"></style></defs><path d="M531.559446 181.015782a77.064917 77.064917 0 0 0 75.429021 55.193702h320.600014a78.807502 78.807502 0 0 0-78.949754-78.66525h-324.120746z m-31.828842-102.136798h348.87256a157.615004 157.615004 0 0 1 157.935071 157.3305v31.68659a161.135736 161.135736 0 0 1 63.657684 125.608347v472.987264a157.650567 157.650567 0 0 1-157.93507 157.3305H157.935071A157.650567 157.650567 0 0 1 0 866.491685V157.330856A157.650567 157.650567 0 0 1 157.935071 0.000356h203.882404a163.58958 163.58958 0 0 1 137.913129 78.878628z m-139.086706 0H156.72593a78.807502 78.807502 0 0 0-78.949754 78.66525v709.160829a78.807502 78.807502 0 0 0 78.949754 78.66525h751.978623a78.807502 78.807502 0 0 0 78.949754-78.66525v-472.987264a78.807502 78.807502 0 0 0-78.949754-78.66525h-299.368931a158.397389 158.397389 0 0 1-150.858043-110.245152l-23.578237-70.450208a72.797363 72.797363 0 0 0-74.255444-55.478205z m-123.759074 670.397211h317.043719a39.901632 39.901632 0 1 1 0 79.838827H236.884824a40.435077 40.435077 0 0 1-40.079447-39.937195 39.652692 39.652692 0 0 1 40.079447-39.901632z" p-id="3640"></path></svg>