<?xml version="1.0" standalone="no"?><!DOCTYPE svg PUBLIC "-//W3C//DTD SVG 1.1//EN" "http://www.w3.org/Graphics/SVG/1.1/DTD/svg11.dtd"><svg t="1616052784732" class="icon" viewBox="0 0 1024 1024" version="1.1" xmlns="http://www.w3.org/2000/svg" p-id="844" width="32" height="32" xmlns:xlink="http://www.w3.org/1999/xlink"><defs><style type="text/css"></style></defs><path d="M586.5 912.5l4.3-4.3c10.5-10.5 10.5-27.6 0-38.1L235.6 514.8c-1.6-1.6-1.6-4.1 0-5.7l355.2-355.2c10.5-10.5 10.5-27.6 0-38.1l-4.3-4.3c-10.5-10.5-27.6-10.5-38.1 0l-391 391-6.7 6.7c-1.6 1.6-1.6 4.1 0 5.7l397.6 397.6c10.6 10.5 27.7 10.5 38.2 0z" p-id="845"></path><path d="M467.3 469.6l-39.6 39.6c-1.6 1.6-1.6 4.1 0 5.7l395.5 395.5c11.7 11.7 30.7 11.7 42.4 0s11.7-30.7 0-42.4l-353-353.2c-1.6-1.6-1.6-4.1 0-5.7L865.7 156c11.7-11.7 11.7-30.7 0-42.4s-30.7-11.7-42.4 0l-356 356z" p-id="846"></path></svg>