<?xml version="1.0" standalone="no"?><!DOCTYPE svg PUBLIC "-//W3C//DTD SVG 1.1//EN" "http://www.w3.org/Graphics/SVG/1.1/DTD/svg11.dtd"><svg t="1616052826944" class="icon" viewBox="0 0 1024 1024" version="1.1" xmlns="http://www.w3.org/2000/svg" p-id="1038" width="32" height="32" xmlns:xlink="http://www.w3.org/1999/xlink"><defs><style type="text/css"></style></defs><path d="M437.5 111.5l-4.3 4.3c-10.5 10.5-10.5 27.6 0 38.1l355.2 355.2c1.6 1.6 1.6 4.1 0 5.7L433.2 870.1c-10.5 10.5-10.5 27.6 0 38.1l4.3 4.3c10.5 10.5 27.6 10.5 38.1 0l391-391 6.7-6.7c1.6-1.6 1.6-4.1 0-5.7L475.6 111.5c-10.5-10.5-27.6-10.5-38.1 0z" p-id="1039"></path><path d="M556.7 554.4l39.6-39.6c1.6-1.6 1.6-4.1 0-5.7L200.8 113.7c-11.7-11.7-30.7-11.7-42.4 0s-11.7 30.7 0 42.4l353.1 353.1c1.6 1.6 1.6 4.1 0 5.7l-353.2 353c-11.7 11.7-11.7 30.7 0 42.4s30.7 11.7 42.4 0l356-355.9z" p-id="1040"></path></svg>