<?xml version="1.0" standalone="no"?><!DOCTYPE svg PUBLIC "-//W3C//DTD SVG 1.1//EN" "http://www.w3.org/Graphics/SVG/1.1/DTD/svg11.dtd"><svg t="1624861459483" class="icon" viewBox="0 0 1024 1024" version="1.1" xmlns="http://www.w3.org/2000/svg" p-id="3449" xmlns:xlink="http://www.w3.org/1999/xlink" width="32" height="32"><defs><style type="text/css"></style></defs><path d="M511.5 888c208 0 376.7-168.5 376.7-376.3S719.6 135.4 511.5 135.4c-208 0-376.7 168.5-376.7 376.3 0.1 207.8 168.7 376.3 376.7 376.3z m0 70.9c-247.2 0-447.7-200.2-447.7-447.2S264.2 64.5 511.5 64.5c247.2 0 447.6 200.2 447.6 447.2 0.1 247-200.4 447.2-447.6 447.2z m0 0" p-id="3450"></path><path d="M420 652c-19.8 0-36-16.2-36-36V408c0-19.8 16.2-36 36-36s36 16.2 36 36v208c0 19.8-16.2 36-36 36zM612 652c-19.8 0-36-16.2-36-36V408c0-19.8 16.2-36 36-36s36 16.2 36 36v208c0 19.8-16.2 36-36 36z" p-id="3451"></path></svg>